#N canvas 316 160 388 449 10;
#X obj 28 188 f;
#X obj 99 203 + 1;
#X floatatom 101 170 5 0 0 0 - - -;
#X obj 68 140 bng 15 250 50 0 empty empty empty 17 7 0 10 -262144 -1
-1;
#X obj 28 101 metro 100;
#X floatatom 104 74 5 0 0 0 - - -;
#X floatatom 28 261 5 0 0 0 - - -;
#X obj 211 243 select 16;
#X obj 28 315 outlet;
#X obj 28 34 inlet;
#X obj 136 53 inlet;
#X text 68 32 on/off;
#X connect 0 0 1 0;
#X connect 0 0 6 0;
#X connect 0 0 7 0;
#X connect 1 0 0 1;
#X connect 2 0 0 0;
#X connect 3 0 0 0;
#X connect 4 0 0 0;
#X connect 5 0 4 1;
#X connect 6 0 8 0;
#X connect 7 0 2 0;
#X connect 9 0 4 0;
#X connect 10 0 5 0;
