#N canvas 383 23 1095 928 10;
#N canvas 181 117 781 754 mixer 0;
#X obj 250 208 dac~;
#X obj 359 54 catch~ mix;
#X obj 358 172 *~;
#X obj 392 129 r master;
#X obj 399 214 s~ recorder;
#X connect 1 0 2 0;
#X connect 2 0 0 0;
#X connect 2 0 0 1;
#X connect 2 0 4 0;
#X connect 3 0 2 1;
#X coords 0 -1 1 1 230 422 1 75 100;
#X restore 856 256 pd mixer;
#N canvas 0 23 1035 282 emmad 0;
#X obj 25 74 tabplay~ sound1;
#X obj 25 45 bng 15 250 50 0 empty empty empty 17 7 0 10 -262144 -1
-1;
#X obj 137 47 bng 15 250 50 0 empty empty empty 17 7 0 10 -262144 -1
-1;
#X obj 25 138 throw~ mix;
#X obj 137 75 tabplay~ sound2;
#X obj 252 47 bng 15 250 50 0 empty empty empty 17 7 0 10 -262144 -1
-1;
#X obj 252 74 tabplay~ sound3;
#X obj 368 46 bng 15 250 50 0 empty empty empty 17 7 0 10 -262144 -1
-1;
#X obj 368 73 tabplay~ sound4;
#X obj 252 138 throw~ mix;
#X obj 368 137 throw~ mix;
#X obj 137 138 throw~ mix;
#X obj 25 17 inlet;
#X obj 137 17 inlet;
#X obj 252 17 inlet;
#X obj 368 17 inlet;
#X obj 25 107 *~;
#X obj 137 105 *~;
#X obj 252 106 *~;
#X obj 368 103 *~;
#X obj 78 95 r vol1;
#X obj 191 95 r vol2;
#X obj 307 95 r vol3;
#X obj 423 95 r vol4;
#X obj 489 47 bng 15 250 50 0 empty empty empty 17 7 0 10 -262144 -1
-1;
#X obj 601 46 bng 15 250 50 0 empty empty empty 17 7 0 10 -262144 -1
-1;
#X obj 489 135 throw~ mix;
#X obj 730 45 bng 15 250 50 0 empty empty empty 17 7 0 10 -262144 -1
-1;
#X obj 849 44 bng 15 250 50 0 empty empty empty 17 7 0 10 -262144 -1
-1;
#X obj 730 131 throw~ mix;
#X obj 849 130 throw~ mix;
#X obj 601 132 throw~ mix;
#X obj 489 17 inlet;
#X obj 601 16 inlet;
#X obj 730 15 inlet;
#X obj 849 14 inlet;
#X obj 489 103 *~;
#X obj 601 104 *~;
#X obj 730 102 *~;
#X obj 849 103 *~;
#X obj 489 72 tabplay~ sound5;
#X obj 601 71 tabplay~ sound6;
#X obj 730 70 tabplay~ sound7;
#X obj 849 68 tabplay~ sound8;
#X obj 542 93 r vol5;
#X obj 655 92 r vol6;
#X obj 785 90 r vol7;
#X obj 903 88 r vol8;
#X connect 0 0 16 0;
#X connect 1 0 0 0;
#X connect 2 0 4 0;
#X connect 4 0 17 0;
#X connect 5 0 6 0;
#X connect 6 0 18 0;
#X connect 7 0 8 0;
#X connect 8 0 19 0;
#X connect 12 0 1 0;
#X connect 13 0 2 0;
#X connect 14 0 5 0;
#X connect 15 0 7 0;
#X connect 16 0 3 0;
#X connect 17 0 11 0;
#X connect 18 0 9 0;
#X connect 19 0 10 0;
#X connect 20 0 16 1;
#X connect 21 0 17 1;
#X connect 22 0 18 1;
#X connect 23 0 19 1;
#X connect 24 0 40 0;
#X connect 25 0 41 0;
#X connect 27 0 42 0;
#X connect 28 0 43 0;
#X connect 32 0 24 0;
#X connect 33 0 25 0;
#X connect 34 0 27 0;
#X connect 35 0 28 0;
#X connect 36 0 26 0;
#X connect 37 0 31 0;
#X connect 38 0 29 0;
#X connect 39 0 30 0;
#X connect 40 0 36 0;
#X connect 41 0 37 0;
#X connect 42 0 38 0;
#X connect 43 0 39 0;
#X connect 44 0 36 1;
#X connect 45 0 37 1;
#X connect 46 0 38 1;
#X connect 47 0 39 1;
#X restore 22 675 pd emmad;
#X f 18;
#X obj 34 182 counter;
#X floatatom 34 229 5 0 0 0 - - -;
#X obj 34 50 tgl 60 0 empty empty empty 17 7 0 10 -204786 -1 -1 0 1
;
#X obj 518 56 vsl 15 128 1000 100 0 0 empty empty empty 0 -9 0 10 -260097
-1 -1 0 1;
#N canvas 727 474 836 273 indicator 0;
#X obj 81 17 inlet;
#X obj 17 46 select 0 1 2 3 4 5 6 7 8 9 10 11 12 13 14 15;
#X obj 177 125 bng 15 250 50 0 empty empty empty 17 7 0 10 -262144
-1 -1;
#X obj 214 125 bng 15 250 50 0 empty empty empty 17 7 0 10 -262144
-1 -1;
#X obj 252 125 bng 15 250 50 0 empty empty empty 17 7 0 10 -262144
-1 -1;
#X obj 288 125 bng 15 250 50 0 empty empty empty 17 7 0 10 -262144
-1 -1;
#X obj 327 124 bng 15 250 50 0 empty empty empty 17 7 0 10 -262144
-1 -1;
#X obj 367 124 bng 15 250 50 0 empty empty empty 17 7 0 10 -262144
-1 -1;
#X obj 404 124 bng 15 250 50 0 empty empty empty 17 7 0 10 -262144
-1 -1;
#X obj 441 124 bng 15 250 50 0 empty empty empty 17 7 0 10 -262144
-1 -1;
#X obj 478 124 bng 15 250 50 0 empty empty empty 17 7 0 10 -262144
-1 -1;
#X obj 514 124 bng 15 250 50 0 empty empty empty 17 7 0 10 -262144
-1 -1;
#X obj 547 124 bng 15 250 50 0 empty empty empty 17 7 0 10 -262144
-1 -1;
#X obj 582 124 bng 15 250 50 0 empty empty empty 17 7 0 10 -262144
-1 -1;
#X obj 619 124 bng 15 250 50 0 empty empty empty 17 7 0 10 -262144
-1 -1;
#X obj 656 124 bng 15 250 50 0 empty empty empty 17 7 0 10 -262144
-1 -1;
#X obj 694 124 bng 15 250 50 0 empty empty empty 17 7 0 10 -262144
-1 -1;
#X obj 732 123 bng 15 250 50 0 empty empty empty 17 7 0 10 -262144
-1 -1;
#X connect 0 0 1 0;
#X connect 1 0 2 0;
#X connect 1 1 3 0;
#X connect 1 2 4 0;
#X connect 1 3 5 0;
#X connect 1 4 6 0;
#X connect 1 5 7 0;
#X connect 1 6 8 0;
#X connect 1 7 9 0;
#X connect 1 8 10 0;
#X connect 1 9 11 0;
#X connect 1 10 12 0;
#X connect 1 11 13 0;
#X connect 1 12 14 0;
#X connect 1 13 15 0;
#X connect 1 14 16 0;
#X connect 1 15 17 0;
#X coords 0 -1 1 1 670 60 1 100 100;
#X restore 176 257 pd indicator;
#X text 1010 334 Vol1;
#X text 1012 376 Vol2;
#X text 1013 422 Vol3;
#X text 1014 469 Vol4;
#X text 1013 515 Vol5;
#X text 1014 557 Vol6;
#X text 1014 605 Vol7;
#X text 1014 651 Vol8;
#X text 508 25 Speed;
#X text 851 775 DAF sequencer;
#N canvas 25 23 1359 963 mysounds 0;
#X obj 597 905 soundfiler;
#X msg 496 647 \; pd dsp 1;
#X obj 489 495 loadbang;
#N canvas 0 22 450 278 (subpatch) 0;
#X array sound1 105472 float 2;
#X coords 0 1 105472 -1 200 140 1;
#X restore 938 13 graph;
#N canvas 0 22 450 278 (subpatch) 0;
#X array sound2 28594 float 2;
#X coords 0 1 28594 -1 200 140 1 0 0;
#X restore 938 172 graph;
#N canvas 0 22 450 278 (subpatch) 0;
#X array sound3 80896 float 2;
#X coords 0 1 80896 -1 200 140 1 0 0;
#X restore 938 332 graph;
#N canvas 0 22 450 278 (subpatch) 0;
#X array sound4 44544 float 2;
#X coords 0 1 44544 -1 200 140 1 0 0;
#X restore 941 487 graph;
#N canvas 0 22 450 278 (subpatch) 0;
#X array sound5 45056 float 2;
#X coords 0 1 45056 -1 200 140 1 0 0;
#X restore 945 646 graph;
#N canvas 0 22 450 278 (subpatch) 0;
#X array sound6 59392 float 2;
#X coords 0 1 59392 -1 200 140 1 0 0;
#X restore 1048 802 graph;
#N canvas 0 22 450 278 (subpatch) 0;
#X array sound7 52224 float 2;
#X coords 0 1 52224 -1 200 140 1 0 0;
#X restore 176 378 graph;
#N canvas 0 22 450 278 (subpatch) 0;
#X array sound8 32768 float 2;
#X coords 0 1 32768 -1 200 140 1 0 0;
#X restore 48 624 graph;
#X msg 662 81 read -resize IDCroll02.wav sound1;
#X msg 710 225 read -resize IDCroll10.wav sound2;
#X msg 716 381 read -resize IDCroll08.wav sound3;
#X msg 705 538 read -resize IDCroll19.wav sound4;
#X msg 729 698 read -resize IDD1f8.wav sound5;
#X msg 834 855 read -resize IDD10pp6.wav sound6;
#X msg 182 536 read -resize IDD10pp8.wav sound7;
#X msg 219 801 read -resize IDS1pp1.wav sound8;
#X connect 2 0 1 0;
#X connect 2 0 18 0;
#X connect 2 0 17 0;
#X connect 2 0 16 0;
#X connect 2 0 15 0;
#X connect 2 0 14 0;
#X connect 2 0 13 0;
#X connect 2 0 12 0;
#X connect 2 0 11 0;
#X connect 11 0 0 0;
#X connect 12 0 0 0;
#X connect 13 0 0 0;
#X connect 14 0 0 0;
#X connect 15 0 0 0;
#X connect 16 0 0 0;
#X connect 17 0 0 0;
#X connect 18 0 0 0;
#X restore 46 147 pd mysounds;
#N canvas 792 361 1100 644 track 0;
#X obj 817 56 inlet;
#X obj 817 103 select 0 1 2 3 4 5 6 7 8 9 10 11 12 13 14 15;
#X obj 104 298 spigot;
#X obj 180 109 tgl 15 0 empty empty empty 17 7 0 10 -262144 -1 -1 0
1;
#X obj 471 431 outlet;
#X obj 153 296 spigot;
#X obj 216 109 tgl 15 0 empty empty empty 17 7 0 10 -262144 -1 -1 0
1;
#X obj 200 295 spigot;
#X obj 253 109 tgl 15 0 empty empty empty 17 7 0 10 -262144 -1 -1 0
1;
#X obj 246 296 spigot;
#X obj 291 109 tgl 15 0 empty empty empty 17 7 0 10 -262144 -1 -1 0
1;
#X obj 292 296 spigot;
#X obj 331 109 tgl 15 0 empty empty empty 17 7 0 10 -262144 -1 -1 0
1;
#X obj 338 297 spigot;
#X obj 371 109 tgl 15 0 empty empty empty 17 7 0 10 -257985 -1 -1 0
1;
#X obj 385 296 spigot;
#X obj 408 109 tgl 15 0 empty empty empty 17 7 0 10 -262144 -1 -1 0
1;
#X obj 431 297 spigot;
#X obj 445 109 tgl 15 0 empty empty empty 17 7 0 10 -257985 -1 -1 0
1;
#X obj 477 298 spigot;
#X obj 480 109 tgl 15 0 empty empty empty 17 7 0 10 -262144 -1 -1 0
1;
#X obj 523 299 spigot;
#X obj 516 109 tgl 15 0 empty empty empty 17 7 0 10 -257985 -1 -1 0
1;
#X obj 570 298 spigot;
#X obj 549 109 tgl 15 0 empty empty empty 17 7 0 10 -262144 -1 -1 0
1;
#X obj 616 299 spigot;
#X obj 583 109 tgl 15 0 empty empty empty 17 7 0 10 -262144 -1 -1 0
1;
#X obj 662 299 spigot;
#X obj 620 109 tgl 15 0 empty empty empty 17 7 0 10 -262144 -1 -1 0
1;
#X obj 708 300 spigot;
#X obj 658 109 tgl 15 0 empty empty empty 17 7 0 10 -262144 -1 -1 0
1;
#X obj 755 299 spigot;
#X obj 696 110 tgl 15 0 empty empty empty 17 7 0 10 -262144 -1 -1 0
1;
#X obj 807 298 spigot;
#X obj 734 110 tgl 15 0 empty empty empty 17 7 0 10 -262144 -1 -1 0
1;
#X connect 0 0 1 0;
#X connect 1 0 2 0;
#X connect 1 1 5 0;
#X connect 1 2 7 0;
#X connect 1 3 9 0;
#X connect 1 4 11 0;
#X connect 1 5 13 0;
#X connect 1 6 15 0;
#X connect 1 7 17 0;
#X connect 1 8 19 0;
#X connect 1 9 21 0;
#X connect 1 10 23 0;
#X connect 1 11 25 0;
#X connect 1 12 27 0;
#X connect 1 13 29 0;
#X connect 1 14 31 0;
#X connect 1 15 33 0;
#X connect 2 0 4 0;
#X connect 3 0 2 1;
#X connect 5 0 4 0;
#X connect 6 0 5 1;
#X connect 7 0 4 0;
#X connect 8 0 7 1;
#X connect 9 0 4 0;
#X connect 10 0 9 1;
#X connect 11 0 4 0;
#X connect 12 0 11 1;
#X connect 13 0 4 0;
#X connect 14 0 13 1;
#X connect 15 0 4 0;
#X connect 16 0 15 1;
#X connect 17 0 4 0;
#X connect 18 0 17 1;
#X connect 19 0 4 0;
#X connect 20 0 19 1;
#X connect 21 0 4 0;
#X connect 22 0 21 1;
#X connect 23 0 4 0;
#X connect 24 0 23 1;
#X connect 25 0 4 0;
#X connect 26 0 25 1;
#X connect 27 0 4 0;
#X connect 28 0 27 1;
#X connect 29 0 4 0;
#X connect 30 0 29 1;
#X connect 31 0 4 0;
#X connect 32 0 31 1;
#X connect 33 0 4 0;
#X connect 34 0 33 1;
#X coords 0 -1 1 1 670 34 1 100 100;
#X restore 176 369 pd track 2;
#N canvas 0 23 1139 583 track 0;
#X obj 817 56 inlet;
#X obj 817 103 select 0 1 2 3 4 5 6 7 8 9 10 11 12 13 14 15;
#X obj 104 298 spigot;
#X obj 180 109 tgl 15 0 empty empty empty 17 7 0 10 -262144 -1 -1 0
1;
#X obj 471 431 outlet;
#X obj 153 296 spigot;
#X obj 216 109 tgl 15 0 empty empty empty 17 7 0 10 -262144 -1 -1 0
1;
#X obj 200 295 spigot;
#X obj 253 109 tgl 15 0 empty empty empty 17 7 0 10 -262144 -1 -1 0
1;
#X obj 246 296 spigot;
#X obj 291 109 tgl 15 0 empty empty empty 17 7 0 10 -257985 -1 -1 0
1;
#X obj 292 296 spigot;
#X obj 331 109 tgl 15 0 empty empty empty 17 7 0 10 -262144 -1 -1 0
1;
#X obj 338 297 spigot;
#X obj 371 109 tgl 15 0 empty empty empty 17 7 0 10 -262144 -1 -1 0
1;
#X obj 385 296 spigot;
#X obj 408 109 tgl 15 0 empty empty empty 17 7 0 10 -262144 -1 -1 0
1;
#X obj 431 297 spigot;
#X obj 445 109 tgl 15 0 empty empty empty 17 7 0 10 -262144 -1 -1 0
1;
#X obj 477 298 spigot;
#X obj 480 109 tgl 15 0 empty empty empty 17 7 0 10 -262144 -1 -1 0
1;
#X obj 523 299 spigot;
#X obj 516 109 tgl 15 0 empty empty empty 17 7 0 10 -262144 -1 -1 0
1;
#X obj 570 298 spigot;
#X obj 549 109 tgl 15 0 empty empty empty 17 7 0 10 -262144 -1 -1 0
1;
#X obj 616 299 spigot;
#X obj 583 109 tgl 15 0 empty empty empty 17 7 0 10 -262144 -1 -1 0
1;
#X obj 662 299 spigot;
#X obj 620 109 tgl 15 0 empty empty empty 17 7 0 10 -262144 -1 -1 0
1;
#X obj 708 300 spigot;
#X obj 658 109 tgl 15 0 empty empty empty 17 7 0 10 -257985 -1 -1 0
1;
#X obj 755 299 spigot;
#X obj 696 110 tgl 15 0 empty empty empty 17 7 0 10 -262144 -1 -1 0
1;
#X obj 807 298 spigot;
#X obj 734 110 tgl 15 0 empty empty empty 17 7 0 10 -262144 -1 -1 0
1;
#X connect 0 0 1 0;
#X connect 1 0 2 0;
#X connect 1 1 5 0;
#X connect 1 2 7 0;
#X connect 1 3 9 0;
#X connect 1 4 11 0;
#X connect 1 5 13 0;
#X connect 1 6 15 0;
#X connect 1 7 17 0;
#X connect 1 8 19 0;
#X connect 1 9 21 0;
#X connect 1 10 23 0;
#X connect 1 11 25 0;
#X connect 1 12 27 0;
#X connect 1 13 29 0;
#X connect 1 14 31 0;
#X connect 1 15 33 0;
#X connect 2 0 4 0;
#X connect 3 0 2 1;
#X connect 5 0 4 0;
#X connect 6 0 5 1;
#X connect 7 0 4 0;
#X connect 8 0 7 1;
#X connect 9 0 4 0;
#X connect 10 0 9 1;
#X connect 11 0 4 0;
#X connect 12 0 11 1;
#X connect 13 0 4 0;
#X connect 14 0 13 1;
#X connect 15 0 4 0;
#X connect 16 0 15 1;
#X connect 17 0 4 0;
#X connect 18 0 17 1;
#X connect 19 0 4 0;
#X connect 20 0 19 1;
#X connect 21 0 4 0;
#X connect 22 0 21 1;
#X connect 23 0 4 0;
#X connect 24 0 23 1;
#X connect 25 0 4 0;
#X connect 26 0 25 1;
#X connect 27 0 4 0;
#X connect 28 0 27 1;
#X connect 29 0 4 0;
#X connect 30 0 29 1;
#X connect 31 0 4 0;
#X connect 32 0 31 1;
#X connect 33 0 4 0;
#X connect 34 0 33 1;
#X coords 0 -1 1 1 670 34 1 100 100;
#X restore 175 415 pd track 3;
#N canvas 0 23 1139 583 track 0;
#X obj 817 56 inlet;
#X obj 817 103 select 0 1 2 3 4 5 6 7 8 9 10 11 12 13 14 15;
#X obj 104 298 spigot;
#X obj 180 109 tgl 15 0 empty empty empty 17 7 0 10 -262144 -1 -1 0
1;
#X obj 471 431 outlet;
#X obj 153 296 spigot;
#X obj 216 109 tgl 15 0 empty empty empty 17 7 0 10 -262144 -1 -1 0
1;
#X obj 200 295 spigot;
#X obj 253 109 tgl 15 0 empty empty empty 17 7 0 10 -262144 -1 -1 0
1;
#X obj 246 296 spigot;
#X obj 291 109 tgl 15 0 empty empty empty 17 7 0 10 -262144 -1 -1 0
1;
#X obj 292 296 spigot;
#X obj 331 109 tgl 15 0 empty empty empty 17 7 0 10 -262144 -1 -1 0
1;
#X obj 338 297 spigot;
#X obj 371 109 tgl 15 0 empty empty empty 17 7 0 10 -262144 -1 -1 0
1;
#X obj 385 296 spigot;
#X obj 408 109 tgl 15 0 empty empty empty 17 7 0 10 -262144 -1 -1 0
1;
#X obj 431 297 spigot;
#X obj 445 109 tgl 15 0 empty empty empty 17 7 0 10 -262144 -1 -1 0
1;
#X obj 477 298 spigot;
#X obj 480 109 tgl 15 0 empty empty empty 17 7 0 10 -262144 -1 -1 0
1;
#X obj 523 299 spigot;
#X obj 516 109 tgl 15 0 empty empty empty 17 7 0 10 -262144 -1 -1 0
1;
#X obj 570 298 spigot;
#X obj 549 109 tgl 15 0 empty empty empty 17 7 0 10 -262144 -1 -1 0
1;
#X obj 616 299 spigot;
#X obj 583 109 tgl 15 0 empty empty empty 17 7 0 10 -262144 -1 -1 0
1;
#X obj 662 299 spigot;
#X obj 620 109 tgl 15 0 empty empty empty 17 7 0 10 -257985 -1 -1 0
1;
#X obj 708 300 spigot;
#X obj 658 109 tgl 15 0 empty empty empty 17 7 0 10 -262144 -1 -1 0
1;
#X obj 755 299 spigot;
#X obj 696 110 tgl 15 0 empty empty empty 17 7 0 10 -257985 -1 -1 0
1;
#X obj 807 298 spigot;
#X obj 734 110 tgl 15 0 empty empty empty 17 7 0 10 -262144 -1 -1 0
1;
#X connect 0 0 1 0;
#X connect 1 0 2 0;
#X connect 1 1 5 0;
#X connect 1 2 7 0;
#X connect 1 3 9 0;
#X connect 1 4 11 0;
#X connect 1 5 13 0;
#X connect 1 6 15 0;
#X connect 1 7 17 0;
#X connect 1 8 19 0;
#X connect 1 9 21 0;
#X connect 1 10 23 0;
#X connect 1 11 25 0;
#X connect 1 12 27 0;
#X connect 1 13 29 0;
#X connect 1 14 31 0;
#X connect 1 15 33 0;
#X connect 2 0 4 0;
#X connect 3 0 2 1;
#X connect 5 0 4 0;
#X connect 6 0 5 1;
#X connect 7 0 4 0;
#X connect 8 0 7 1;
#X connect 9 0 4 0;
#X connect 10 0 9 1;
#X connect 11 0 4 0;
#X connect 12 0 11 1;
#X connect 13 0 4 0;
#X connect 14 0 13 1;
#X connect 15 0 4 0;
#X connect 16 0 15 1;
#X connect 17 0 4 0;
#X connect 18 0 17 1;
#X connect 19 0 4 0;
#X connect 20 0 19 1;
#X connect 21 0 4 0;
#X connect 22 0 21 1;
#X connect 23 0 4 0;
#X connect 24 0 23 1;
#X connect 25 0 4 0;
#X connect 26 0 25 1;
#X connect 27 0 4 0;
#X connect 28 0 27 1;
#X connect 29 0 4 0;
#X connect 30 0 29 1;
#X connect 31 0 4 0;
#X connect 32 0 31 1;
#X connect 33 0 4 0;
#X connect 34 0 33 1;
#X coords 0 -1 1 1 670 34 1 100 100;
#X restore 174 460 pd track 4;
#N canvas 0 23 1139 583 track 0;
#X obj 817 56 inlet;
#X obj 817 103 select 0 1 2 3 4 5 6 7 8 9 10 11 12 13 14 15;
#X obj 104 298 spigot;
#X obj 180 109 tgl 15 0 empty empty empty 17 7 0 10 -262144 -1 -1 0
1;
#X obj 471 431 outlet;
#X obj 153 296 spigot;
#X obj 216 109 tgl 15 0 empty empty empty 17 7 0 10 -262144 -1 -1 0
1;
#X obj 200 295 spigot;
#X obj 253 109 tgl 15 0 empty empty empty 17 7 0 10 -262144 -1 -1 0
1;
#X obj 246 296 spigot;
#X obj 291 109 tgl 15 0 empty empty empty 17 7 0 10 -257985 -1 -1 0
1;
#X obj 292 296 spigot;
#X obj 331 109 tgl 15 0 empty empty empty 17 7 0 10 -262144 -1 -1 0
1;
#X obj 338 297 spigot;
#X obj 371 109 tgl 15 0 empty empty empty 17 7 0 10 -262144 -1 -1 0
1;
#X obj 385 296 spigot;
#X obj 408 109 tgl 15 0 empty empty empty 17 7 0 10 -262144 -1 -1 0
1;
#X obj 431 297 spigot;
#X obj 445 109 tgl 15 0 empty empty empty 17 7 0 10 -257985 -1 -1 0
1;
#X obj 477 298 spigot;
#X obj 480 109 tgl 15 0 empty empty empty 17 7 0 10 -262144 -1 -1 0
1;
#X obj 523 299 spigot;
#X obj 516 109 tgl 15 0 empty empty empty 17 7 0 10 -262144 -1 -1 0
1;
#X obj 570 298 spigot;
#X obj 549 109 tgl 15 0 empty empty empty 17 7 0 10 -262144 -1 -1 0
1;
#X obj 616 299 spigot;
#X obj 583 109 tgl 15 0 empty empty empty 17 7 0 10 -257985 -1 -1 0
1;
#X obj 662 299 spigot;
#X obj 620 109 tgl 15 0 empty empty empty 17 7 0 10 -262144 -1 -1 0
1;
#X obj 708 300 spigot;
#X obj 658 109 tgl 15 0 empty empty empty 17 7 0 10 -262144 -1 -1 0
1;
#X obj 755 299 spigot;
#X obj 696 110 tgl 15 0 empty empty empty 17 7 0 10 -262144 -1 -1 0
1;
#X obj 807 298 spigot;
#X obj 734 110 tgl 15 0 empty empty empty 17 7 0 10 -262144 -1 -1 0
1;
#X connect 0 0 1 0;
#X connect 1 0 2 0;
#X connect 1 1 5 0;
#X connect 1 2 7 0;
#X connect 1 3 9 0;
#X connect 1 4 11 0;
#X connect 1 5 13 0;
#X connect 1 6 15 0;
#X connect 1 7 17 0;
#X connect 1 8 19 0;
#X connect 1 9 21 0;
#X connect 1 10 23 0;
#X connect 1 11 25 0;
#X connect 1 12 27 0;
#X connect 1 13 29 0;
#X connect 1 14 31 0;
#X connect 1 15 33 0;
#X connect 2 0 4 0;
#X connect 3 0 2 1;
#X connect 5 0 4 0;
#X connect 6 0 5 1;
#X connect 7 0 4 0;
#X connect 8 0 7 1;
#X connect 9 0 4 0;
#X connect 10 0 9 1;
#X connect 11 0 4 0;
#X connect 12 0 11 1;
#X connect 13 0 4 0;
#X connect 14 0 13 1;
#X connect 15 0 4 0;
#X connect 16 0 15 1;
#X connect 17 0 4 0;
#X connect 18 0 17 1;
#X connect 19 0 4 0;
#X connect 20 0 19 1;
#X connect 21 0 4 0;
#X connect 22 0 21 1;
#X connect 23 0 4 0;
#X connect 24 0 23 1;
#X connect 25 0 4 0;
#X connect 26 0 25 1;
#X connect 27 0 4 0;
#X connect 28 0 27 1;
#X connect 29 0 4 0;
#X connect 30 0 29 1;
#X connect 31 0 4 0;
#X connect 32 0 31 1;
#X connect 33 0 4 0;
#X connect 34 0 33 1;
#X coords 0 -1 1 1 670 34 1 100 100;
#X restore 175 506 pd track 5;
#N canvas 0 23 1139 583 track 0;
#X obj 817 56 inlet;
#X obj 817 103 select 0 1 2 3 4 5 6 7 8 9 10 11 12 13 14 15;
#X obj 104 298 spigot;
#X obj 180 109 tgl 15 0 empty empty empty 17 7 0 10 -262144 -1 -1 0
1;
#X obj 471 431 outlet;
#X obj 153 296 spigot;
#X obj 216 109 tgl 15 0 empty empty empty 17 7 0 10 -257985 -1 -1 0
1;
#X obj 200 295 spigot;
#X obj 253 109 tgl 15 0 empty empty empty 17 7 0 10 -262144 -1 -1 0
1;
#X obj 246 296 spigot;
#X obj 291 109 tgl 15 0 empty empty empty 17 7 0 10 -262144 -1 -1 0
1;
#X obj 292 296 spigot;
#X obj 331 109 tgl 15 0 empty empty empty 17 7 0 10 -262144 -1 -1 0
1;
#X obj 338 297 spigot;
#X obj 371 109 tgl 15 0 empty empty empty 17 7 0 10 -262144 -1 -1 0
1;
#X obj 385 296 spigot;
#X obj 408 109 tgl 15 0 empty empty empty 17 7 0 10 -262144 -1 -1 0
1;
#X obj 431 297 spigot;
#X obj 445 109 tgl 15 0 empty empty empty 17 7 0 10 -262144 -1 -1 0
1;
#X obj 477 298 spigot;
#X obj 480 109 tgl 15 0 empty empty empty 17 7 0 10 -262144 -1 -1 0
1;
#X obj 523 299 spigot;
#X obj 516 109 tgl 15 0 empty empty empty 17 7 0 10 -262144 -1 -1 0
1;
#X obj 570 298 spigot;
#X obj 549 109 tgl 15 0 empty empty empty 17 7 0 10 -262144 -1 -1 0
1;
#X obj 616 299 spigot;
#X obj 583 109 tgl 15 0 empty empty empty 17 7 0 10 -262144 -1 -1 0
1;
#X obj 662 299 spigot;
#X obj 620 109 tgl 15 0 empty empty empty 17 7 0 10 -262144 -1 -1 0
1;
#X obj 708 300 spigot;
#X obj 658 109 tgl 15 0 empty empty empty 17 7 0 10 -262144 -1 -1 0
1;
#X obj 755 299 spigot;
#X obj 696 110 tgl 15 0 empty empty empty 17 7 0 10 -262144 -1 -1 0
1;
#X obj 807 298 spigot;
#X obj 734 110 tgl 15 0 empty empty empty 17 7 0 10 -262144 -1 -1 0
1;
#X connect 0 0 1 0;
#X connect 1 0 2 0;
#X connect 1 1 5 0;
#X connect 1 2 7 0;
#X connect 1 3 9 0;
#X connect 1 4 11 0;
#X connect 1 5 13 0;
#X connect 1 6 15 0;
#X connect 1 7 17 0;
#X connect 1 8 19 0;
#X connect 1 9 21 0;
#X connect 1 10 23 0;
#X connect 1 11 25 0;
#X connect 1 12 27 0;
#X connect 1 13 29 0;
#X connect 1 14 31 0;
#X connect 1 15 33 0;
#X connect 2 0 4 0;
#X connect 3 0 2 1;
#X connect 5 0 4 0;
#X connect 6 0 5 1;
#X connect 7 0 4 0;
#X connect 8 0 7 1;
#X connect 9 0 4 0;
#X connect 10 0 9 1;
#X connect 11 0 4 0;
#X connect 12 0 11 1;
#X connect 13 0 4 0;
#X connect 14 0 13 1;
#X connect 15 0 4 0;
#X connect 16 0 15 1;
#X connect 17 0 4 0;
#X connect 18 0 17 1;
#X connect 19 0 4 0;
#X connect 20 0 19 1;
#X connect 21 0 4 0;
#X connect 22 0 21 1;
#X connect 23 0 4 0;
#X connect 24 0 23 1;
#X connect 25 0 4 0;
#X connect 26 0 25 1;
#X connect 27 0 4 0;
#X connect 28 0 27 1;
#X connect 29 0 4 0;
#X connect 30 0 29 1;
#X connect 31 0 4 0;
#X connect 32 0 31 1;
#X connect 33 0 4 0;
#X connect 34 0 33 1;
#X coords 0 -1 1 1 670 34 1 100 100;
#X restore 174 551 pd track 6;
#N canvas 0 23 1139 583 track 0;
#X obj 817 56 inlet;
#X obj 817 103 select 0 1 2 3 4 5 6 7 8 9 10 11 12 13 14 15;
#X obj 104 298 spigot;
#X obj 180 109 tgl 15 0 empty empty empty 17 7 0 10 -262144 -1 -1 0
1;
#X obj 471 431 outlet;
#X obj 153 296 spigot;
#X obj 216 109 tgl 15 0 empty empty empty 17 7 0 10 -262144 -1 -1 0
1;
#X obj 200 295 spigot;
#X obj 253 109 tgl 15 0 empty empty empty 17 7 0 10 -262144 -1 -1 0
1;
#X obj 246 296 spigot;
#X obj 291 109 tgl 15 0 empty empty empty 17 7 0 10 -262144 -1 -1 0
1;
#X obj 292 296 spigot;
#X obj 331 109 tgl 15 0 empty empty empty 17 7 0 10 -257985 -1 -1 0
1;
#X obj 338 297 spigot;
#X obj 371 109 tgl 15 0 empty empty empty 17 7 0 10 -257985 -1 -1 0
1;
#X obj 385 296 spigot;
#X obj 408 109 tgl 15 0 empty empty empty 17 7 0 10 -262144 -1 -1 0
1;
#X obj 431 297 spigot;
#X obj 445 109 tgl 15 0 empty empty empty 17 7 0 10 -262144 -1 -1 0
1;
#X obj 477 298 spigot;
#X obj 480 109 tgl 15 0 empty empty empty 17 7 0 10 -262144 -1 -1 0
1;
#X obj 523 299 spigot;
#X obj 516 109 tgl 15 0 empty empty empty 17 7 0 10 -262144 -1 -1 0
1;
#X obj 570 298 spigot;
#X obj 549 109 tgl 15 0 empty empty empty 17 7 0 10 -257985 -1 -1 0
1;
#X obj 616 299 spigot;
#X obj 583 109 tgl 15 0 empty empty empty 17 7 0 10 -257985 -1 -1 0
1;
#X obj 662 299 spigot;
#X obj 620 109 tgl 15 0 empty empty empty 17 7 0 10 -262144 -1 -1 0
1;
#X obj 708 300 spigot;
#X obj 658 109 tgl 15 0 empty empty empty 17 7 0 10 -262144 -1 -1 0
1;
#X obj 755 299 spigot;
#X obj 696 110 tgl 15 0 empty empty empty 17 7 0 10 -262144 -1 -1 0
1;
#X obj 807 298 spigot;
#X obj 734 110 tgl 15 0 empty empty empty 17 7 0 10 -262144 -1 -1 0
1;
#X connect 0 0 1 0;
#X connect 1 0 2 0;
#X connect 1 1 5 0;
#X connect 1 2 7 0;
#X connect 1 3 9 0;
#X connect 1 4 11 0;
#X connect 1 5 13 0;
#X connect 1 6 15 0;
#X connect 1 7 17 0;
#X connect 1 8 19 0;
#X connect 1 9 21 0;
#X connect 1 10 23 0;
#X connect 1 11 25 0;
#X connect 1 12 27 0;
#X connect 1 13 29 0;
#X connect 1 14 31 0;
#X connect 1 15 33 0;
#X connect 2 0 4 0;
#X connect 3 0 2 1;
#X connect 5 0 4 0;
#X connect 6 0 5 1;
#X connect 7 0 4 0;
#X connect 8 0 7 1;
#X connect 9 0 4 0;
#X connect 10 0 9 1;
#X connect 11 0 4 0;
#X connect 12 0 11 1;
#X connect 13 0 4 0;
#X connect 14 0 13 1;
#X connect 15 0 4 0;
#X connect 16 0 15 1;
#X connect 17 0 4 0;
#X connect 18 0 17 1;
#X connect 19 0 4 0;
#X connect 20 0 19 1;
#X connect 21 0 4 0;
#X connect 22 0 21 1;
#X connect 23 0 4 0;
#X connect 24 0 23 1;
#X connect 25 0 4 0;
#X connect 26 0 25 1;
#X connect 27 0 4 0;
#X connect 28 0 27 1;
#X connect 29 0 4 0;
#X connect 30 0 29 1;
#X connect 31 0 4 0;
#X connect 32 0 31 1;
#X connect 33 0 4 0;
#X connect 34 0 33 1;
#X coords 0 -1 1 1 670 34 1 100 100;
#X restore 175 598 pd track 7;
#N canvas 0 23 1139 583 track 0;
#X obj 817 56 inlet;
#X obj 817 103 select 0 1 2 3 4 5 6 7 8 9 10 11 12 13 14 15;
#X obj 104 298 spigot;
#X obj 180 109 tgl 15 0 empty empty empty 17 7 0 10 -262144 -1 -1 0
1;
#X obj 471 431 outlet;
#X obj 153 296 spigot;
#X obj 216 109 tgl 15 0 empty empty empty 17 7 0 10 -262144 -1 -1 0
1;
#X obj 200 295 spigot;
#X obj 253 109 tgl 15 0 empty empty empty 17 7 0 10 -262144 -1 -1 0
1;
#X obj 246 296 spigot;
#X obj 291 109 tgl 15 0 empty empty empty 17 7 0 10 -257985 -1 -1 0
1;
#X obj 292 296 spigot;
#X obj 331 109 tgl 15 0 empty empty empty 17 7 0 10 -262144 -1 -1 0
1;
#X obj 338 297 spigot;
#X obj 371 109 tgl 15 0 empty empty empty 17 7 0 10 -262144 -1 -1 0
1;
#X obj 385 296 spigot;
#X obj 408 109 tgl 15 0 empty empty empty 17 7 0 10 -257985 -1 -1 0
1;
#X obj 431 297 spigot;
#X obj 445 109 tgl 15 0 empty empty empty 17 7 0 10 -262144 -1 -1 0
1;
#X obj 477 298 spigot;
#X obj 480 109 tgl 15 0 empty empty empty 17 7 0 10 -262144 -1 -1 0
1;
#X obj 523 299 spigot;
#X obj 516 109 tgl 15 0 empty empty empty 17 7 0 10 -257985 -1 -1 0
1;
#X obj 570 298 spigot;
#X obj 549 109 tgl 15 0 empty empty empty 17 7 0 10 -262144 -1 -1 0
1;
#X obj 616 299 spigot;
#X obj 583 109 tgl 15 0 empty empty empty 17 7 0 10 -262144 -1 -1 0
1;
#X obj 662 299 spigot;
#X obj 620 109 tgl 15 0 empty empty empty 17 7 0 10 -262144 -1 -1 0
1;
#X obj 708 300 spigot;
#X obj 658 109 tgl 15 0 empty empty empty 17 7 0 10 -262144 -1 -1 0
1;
#X obj 755 299 spigot;
#X obj 696 110 tgl 15 0 empty empty empty 17 7 0 10 -262144 -1 -1 0
1;
#X obj 807 298 spigot;
#X obj 734 110 tgl 15 0 empty empty empty 17 7 0 10 -262144 -1 -1 0
1;
#X connect 0 0 1 0;
#X connect 1 0 2 0;
#X connect 1 1 5 0;
#X connect 1 2 7 0;
#X connect 1 3 9 0;
#X connect 1 4 11 0;
#X connect 1 5 13 0;
#X connect 1 6 15 0;
#X connect 1 7 17 0;
#X connect 1 8 19 0;
#X connect 1 9 21 0;
#X connect 1 10 23 0;
#X connect 1 11 25 0;
#X connect 1 12 27 0;
#X connect 1 13 29 0;
#X connect 1 14 31 0;
#X connect 1 15 33 0;
#X connect 2 0 4 0;
#X connect 3 0 2 1;
#X connect 5 0 4 0;
#X connect 6 0 5 1;
#X connect 7 0 4 0;
#X connect 8 0 7 1;
#X connect 9 0 4 0;
#X connect 10 0 9 1;
#X connect 11 0 4 0;
#X connect 12 0 11 1;
#X connect 13 0 4 0;
#X connect 14 0 13 1;
#X connect 15 0 4 0;
#X connect 16 0 15 1;
#X connect 17 0 4 0;
#X connect 18 0 17 1;
#X connect 19 0 4 0;
#X connect 20 0 19 1;
#X connect 21 0 4 0;
#X connect 22 0 21 1;
#X connect 23 0 4 0;
#X connect 24 0 23 1;
#X connect 25 0 4 0;
#X connect 26 0 25 1;
#X connect 27 0 4 0;
#X connect 28 0 27 1;
#X connect 29 0 4 0;
#X connect 30 0 29 1;
#X connect 31 0 4 0;
#X connect 32 0 31 1;
#X connect 33 0 4 0;
#X connect 34 0 33 1;
#X coords 0 -1 1 1 670 34 1 100 100;
#X restore 174 643 pd track 8;
#X obj 875 335 hsl 128 15 0 1 0 0 vol1 empty empty -2 -8 0 10 -204786
-1 -1 0 1;
#X obj 875 377 hsl 128 15 0 1 0 0 vol2 empty empty -2 -8 0 10 -204786
-1 -1 0 1;
#X obj 875 423 hsl 128 15 0 1 0 0 vol3 empty empty -2 -8 0 10 -204786
-1 -1 0 1;
#X obj 875 469 hsl 128 15 0 1 0 0 vol4 empty empty -2 -8 0 10 -204786
-1 -1 0 1;
#X obj 874 516 hsl 128 15 0 1 0 0 vol5 empty empty -2 -8 0 10 -204786
-1 -1 0 1;
#X obj 874 559 hsl 128 15 0 1 0 0 vol6 empty empty -2 -8 0 10 -204786
-1 -1 0 1;
#X obj 873 606 hsl 128 15 0 1 0 0 vol7 empty empty -2 -8 0 10 -204786
-1 -1 0 1;
#X obj 873 651 hsl 128 15 0 1 0 0 vol8 empty empty -2 -8 0 10 -204786
-1 -1 0 1;
#X text 1011 296 Master Vol;
#X obj 876 298 hsl 128 15 0 1 0 0 master empty empty -2 -8 0 10 -4032
-1 -1 0 1;
#X text 884 225 Volume sliders;
#N canvas 792 354 1100 644 track 0;
#X obj 817 56 inlet;
#X obj 817 103 select 0 1 2 3 4 5 6 7 8 9 10 11 12 13 14 15;
#X obj 104 298 spigot;
#X obj 180 109 tgl 15 0 empty empty empty 17 7 0 10 -262144 -1 -1 0
1;
#X obj 471 431 outlet;
#X obj 153 296 spigot;
#X obj 216 109 tgl 15 0 empty empty empty 17 7 0 10 -262144 -1 -1 0
1;
#X obj 200 295 spigot;
#X obj 253 109 tgl 15 0 empty empty empty 17 7 0 10 -262144 -1 -1 0
1;
#X obj 246 296 spigot;
#X obj 291 109 tgl 15 0 empty empty empty 17 7 0 10 -262144 -1 -1 0
1;
#X obj 292 296 spigot;
#X obj 331 109 tgl 15 0 empty empty empty 17 7 0 10 -262144 -1 -1 0
1;
#X obj 338 297 spigot;
#X obj 371 109 tgl 15 0 empty empty empty 17 7 0 10 -262144 -1 -1 0
1;
#X obj 385 296 spigot;
#X obj 408 109 tgl 15 0 empty empty empty 17 7 0 10 -262144 -1 -1 0
1;
#X obj 431 297 spigot;
#X obj 445 109 tgl 15 0 empty empty empty 17 7 0 10 -262144 -1 -1 0
1;
#X obj 477 298 spigot;
#X obj 480 109 tgl 15 0 empty empty empty 17 7 0 10 -262144 -1 -1 0
1;
#X obj 523 299 spigot;
#X obj 516 109 tgl 15 0 empty empty empty 17 7 0 10 -262144 -1 -1 0
1;
#X obj 570 298 spigot;
#X obj 549 109 tgl 15 0 empty empty empty 17 7 0 10 -262144 -1 -1 0
1;
#X obj 616 299 spigot;
#X obj 583 109 tgl 15 0 empty empty empty 17 7 0 10 -262144 -1 -1 0
1;
#X obj 662 299 spigot;
#X obj 620 109 tgl 15 0 empty empty empty 17 7 0 10 -262144 -1 -1 0
1;
#X obj 708 300 spigot;
#X obj 658 109 tgl 15 0 empty empty empty 17 7 0 10 -262144 -1 -1 0
1;
#X obj 755 299 spigot;
#X obj 696 110 tgl 15 0 empty empty empty 17 7 0 10 -262144 -1 -1 0
1;
#X obj 807 298 spigot;
#X obj 734 110 tgl 15 0 empty empty empty 17 7 0 10 -257985 -1 -1 0
1;
#X connect 0 0 1 0;
#X connect 1 0 2 0;
#X connect 1 1 5 0;
#X connect 1 2 7 0;
#X connect 1 3 9 0;
#X connect 1 4 11 0;
#X connect 1 5 13 0;
#X connect 1 6 15 0;
#X connect 1 7 17 0;
#X connect 1 8 19 0;
#X connect 1 9 21 0;
#X connect 1 10 23 0;
#X connect 1 11 25 0;
#X connect 1 12 27 0;
#X connect 1 13 29 0;
#X connect 1 14 31 0;
#X connect 1 15 33 0;
#X connect 2 0 4 0;
#X connect 3 0 2 1;
#X connect 5 0 4 0;
#X connect 6 0 5 1;
#X connect 7 0 4 0;
#X connect 8 0 7 1;
#X connect 9 0 4 0;
#X connect 10 0 9 1;
#X connect 11 0 4 0;
#X connect 12 0 11 1;
#X connect 13 0 4 0;
#X connect 14 0 13 1;
#X connect 15 0 4 0;
#X connect 16 0 15 1;
#X connect 17 0 4 0;
#X connect 18 0 17 1;
#X connect 19 0 4 0;
#X connect 20 0 19 1;
#X connect 21 0 4 0;
#X connect 22 0 21 1;
#X connect 23 0 4 0;
#X connect 24 0 23 1;
#X connect 25 0 4 0;
#X connect 26 0 25 1;
#X connect 27 0 4 0;
#X connect 28 0 27 1;
#X connect 29 0 4 0;
#X connect 30 0 29 1;
#X connect 31 0 4 0;
#X connect 32 0 31 1;
#X connect 33 0 4 0;
#X connect 34 0 33 1;
#X coords 0 -1 1 1 670 34 1 100 100;
#X restore 176 327 pd track 1;
#N canvas 48 23 1209 709 record 0;
#X obj 383 83 bng 15 250 50 0 empty empty empty 17 7 0 10 -262144 -1
-1;
#X obj 383 133 metro 100;
#X obj 383 214 tabwrite~ array1;
#N canvas 0 22 450 278 (subpatch) 0;
#X array array1 100 float 3;
#A 0 0 0 0 0 0 0 0 0 0 0 0 0 0 0 0 0 0 0 0 0 0 0 0 0 0 0 0 0 0 0 0
0 0 0 0 0 0 0 0 0 0 0 0 0 0 0 0 0 0 0 0 0 0 0 0 0 0 0 0 0 0 0 0 0 0
0 0 0 0 0 0 0 0 0 0 0 0 0 0 0 0 0 0 0 0 0 0 0 0 0 0 0 0 0 0 0 0 0 0
0;
#X coords 0 1 100 -1 200 140 1;
#X restore 583 89 graph;
#X msg 145 245 stop;
#X msg 342 256 open YourDafTrack.wav \, start;
#X obj 103 135 bng 30 250 50 0 empty empty empty 17 7 0 10 -4034 -1
-1;
#X obj 145 135 bng 30 250 50 0 empty empty empty 17 7 0 10 -258113
-1 -1;
#X obj 209 90 r~ recorder;
#X obj 209 129 *~ 1;
#X obj 205 269 writesf~ 2;
#X connect 0 0 1 0;
#X connect 1 0 2 0;
#X connect 4 0 10 0;
#X connect 5 0 10 0;
#X connect 6 0 5 0;
#X connect 7 0 4 0;
#X connect 8 0 9 0;
#X connect 9 0 2 0;
#X connect 9 0 10 0;
#X coords 0 -1 1 1 80 80 1 100 100;
#X restore 719 71 pd record;
#X text 661 105 Start recording, f 9;
#X text 802 104 Stop recording;
#X text 38 22 ON/OFF;
#X text 940 775 Emad Heydari 05/2019;
#X text 35 744 1: Click on the big green toggle button --> ON/OFF;
#X text 35 759 2: Slide to the right on the blue Master Vol to increase
the volume of the audio.;
#X text 35 785 3: Do the same with the other sliders depeding on the
volume you prefer.;
#X text 35 811 4: Click on the yellow toggles;
#X text 35 826 5: Adjust the speed of the audio flow using Orange speed
slider;
#X text 35 726 Intruction:;
#N canvas 611 266 500 351 playback 0;
#X obj 102 261 readsf~;
#X msg 104 230 open YourDafTrack.wav \, 1;
#X obj 117 120 tgl 30 0 empty empty empty 17 7 0 10 -262144 -1 -1 0
1;
#X obj 100 303 dac~;
#X connect 0 0 3 0;
#X connect 0 0 3 1;
#X connect 1 0 0 0;
#X connect 2 0 1 0;
#X coords 0 -1 1 1 55 60 1 100 100;
#X restore 951 76 pd playback;
#X text 914 143 Playback your recording;
#X text 35 852 6: Record the tracke;
#X text 35 868 7: Play it back;
#X text 146 685 Note: The yellow colored toggles are my selections
for creating a Daf track. You can play around and create something
else, f 122;
#X connect 2 0 3 0;
#X connect 3 0 6 0;
#X connect 3 0 18 0;
#X connect 3 0 19 0;
#X connect 3 0 20 0;
#X connect 3 0 21 0;
#X connect 3 0 22 0;
#X connect 3 0 23 0;
#X connect 3 0 24 0;
#X connect 3 0 36 0;
#X connect 4 0 2 0;
#X connect 5 0 2 1;
#X connect 18 0 1 1;
#X connect 19 0 1 2;
#X connect 20 0 1 3;
#X connect 21 0 1 4;
#X connect 22 0 1 5;
#X connect 23 0 1 6;
#X connect 24 0 1 7;
#X connect 36 0 1 0;
#X coords 0 928 1 927 800 50 0;
